<svg xmlns="http://www.w3.org/2000/svg" width="504" height="183" viewBox="0 0 504 183">
<g>
<path d="M 99.08 140.00 C95.28,140.00 91.56,140.13 90.83,140.29 C88.15,140.87 73.44,139.95 71.50,139.08 C59.92,133.87 57.35,132.32 54.06,128.58 C50.32,124.31 48.04,120.32 45.17,113.00 C42.82,107.01 42.62,105.25 42.60,90.50 C42.58,74.69 42.62,74.41 45.86,66.50 C49.19,58.39 56.25,48.00 58.45,48.00 C59.11,48.00 60.66,46.93 61.89,45.62 C65.80,41.45 73.97,39.57 88.29,39.53 C97.86,39.51 101.28,39.83 101.89,40.83 C102.34,41.56 103.34,42.06 104.11,41.94 C106.87,41.53 111.80,43.24 113.88,45.35 C122.01,53.56 123.71,55.19 125.38,56.35 C126.41,57.07 127.25,58.85 127.25,60.33 C127.25,61.80 127.55,63.00 127.91,63.00 C128.27,63.00 129.39,64.39 130.39,66.09 C131.68,68.27 132.19,71.04 132.12,75.54 C132.07,79.03 132.47,82.17 133.01,82.51 C134.75,83.58 134.21,94.58 132.35,96.13 C131.06,97.20 123.91,97.61 99.60,98.00 L 68.50 98.50 L 68.69 102.71 C68.89,107.46 71.72,112.22 76.94,116.61 C80.29,119.42 80.69,119.50 91.44,119.47 L 102.50 119.45 L 107.85 115.72 C110.79,113.68 113.88,112.00 114.72,112.00 C116.54,112.00 126.96,121.98 126.99,123.75 C126.99,124.44 127.76,125.00 128.69,125.00 C130.06,125.00 129.93,125.42 127.97,127.24 C126.65,128.47 124.82,129.35 123.91,129.20 C122.95,129.04 122.04,129.75 121.74,130.89 C121.36,132.33 120.65,132.72 119.11,132.32 C117.71,131.95 117.00,132.23 117.00,133.16 C117.00,134.86 111.36,137.42 108.25,137.13 C106.80,137.00 106.00,137.47 106.00,138.46 C106.00,139.70 104.64,140.00 99.08,140.00 ZM 255.31 121.21 C253.95,122.28 241.31,123.01 235.83,122.34 C233.81,122.09 231.61,121.24 230.95,120.44 C230.29,119.65 229.25,119.00 228.63,119.00 C226.92,119.00 220.00,112.52 219.99,110.91 C219.99,110.14 219.22,108.15 218.28,106.50 C216.11,102.71 215.69,79.90 217.75,77.85 C218.44,77.16 219.00,75.83 219.00,74.88 C219.00,71.52 229.42,62.20 232.41,62.89 C232.91,63.01 233.67,62.53 234.11,61.83 C234.66,60.93 237.67,60.57 244.20,60.61 C252.58,60.66 253.95,60.95 258.00,63.46 C263.46,66.84 269.32,73.73 268.51,75.83 C268.19,76.66 268.47,77.67 269.12,78.08 C269.78,78.48 270.46,80.09 270.64,81.66 C270.82,83.22 271.24,86.58 271.57,89.13 C272.55,96.54 271.27,97.00 249.78,97.00 L 232.00 97.00 L 232.00 99.34 C232.00,100.63 233.24,103.29 234.75,105.26 C236.99,108.17 238.38,108.96 242.21,109.51 C247.85,110.31 252.55,109.42 256.15,106.88 C259.58,104.45 260.78,104.51 263.54,107.25 C264.79,108.49 266.60,110.15 267.57,110.94 C269.20,112.28 269.06,112.61 265.46,115.72 C263.33,117.56 260.45,119.34 259.05,119.67 C257.65,120.00 255.96,120.70 255.31,121.21 ZM 413.31 121.19 C411.78,122.42 398.43,123.09 394.50,122.13 C385.16,119.87 375.99,111.43 376.84,105.87 C376.97,104.98 376.41,103.99 375.60,103.68 C374.52,103.26 374.26,102.17 374.66,99.68 C374.99,97.66 374.77,95.97 374.11,95.57 C372.68,94.68 372.66,88.33 374.10,87.44 C374.70,87.07 374.98,85.35 374.72,83.63 C373.81,77.57 379.16,69.31 387.69,63.61 C391.51,61.06 392.73,60.80 401.24,60.73 C409.62,60.66 411.11,60.94 415.55,63.38 C420.85,66.30 426.01,72.38 427.86,77.90 C428.49,79.77 429.00,84.39 429.00,88.17 C429.00,94.75 428.88,95.09 426.25,96.10 C424.58,96.74 416.55,97.02 405.75,96.82 L 388.00 96.50 L 388.00 98.75 C388.00,100.08 388.61,101.00 389.50,101.00 C390.33,101.00 391.00,101.59 391.00,102.31 C391.00,103.04 392.38,104.95 394.07,106.56 C396.85,109.23 397.76,109.50 403.99,109.50 C409.72,109.50 411.23,109.13 413.23,107.25 C416.63,104.06 418.94,104.46 423.44,109.03 L 427.38 113.03 L 423.94 115.96 C422.05,117.57 419.15,119.19 417.50,119.56 C415.85,119.93 413.96,120.66 413.31,121.19 ZM 294.00 100.81 L 293.50 121.50 L 286.46 121.79 C282.58,121.95 279.09,121.76 278.71,121.37 C277.85,120.51 277.75,64.81 278.61,62.58 C279.08,61.34 280.78,61.00 286.49,61.00 C293.10,61.00 293.82,61.20 294.33,63.15 C294.87,65.22 294.98,65.24 297.47,63.61 C298.89,62.68 300.54,62.22 301.14,62.59 C301.74,62.95 302.52,62.78 302.88,62.20 C303.59,61.04 307.99,60.54 315.20,60.82 C319.43,60.98 320.43,61.52 325.04,66.13 C329.72,70.81 330.12,71.57 329.54,74.63 C329.04,77.29 329.24,78.00 330.47,78.00 C331.85,78.00 332.01,80.57 331.77,99.75 L 331.50 121.50 L 323.75 121.79 L 316.00 122.08 L 316.00 103.09 C316.00,90.33 315.60,83.18 314.78,81.30 C311.33,73.40 302.92,71.35 297.44,77.06 L 294.50 80.13 ZM 367.26 115.50 L 367.26 121.50 L 359.88 121.66 C351.46,121.85 348.28,120.60 344.79,115.72 C342.54,112.56 342.49,111.96 342.21,82.25 L 341.92 52.00 L 354.90 52.00 L 355.20 57.25 L 355.50 62.50 L 361.84 62.80 C367.05,63.05 368.07,63.37 367.59,64.63 C367.26,65.47 367.00,68.38 367.00,71.08 L 367.00 76.00 L 362.20 76.00 C359.56,76.00 356.86,76.54 356.20,77.20 C355.40,78.00 355.00,82.49 355.00,90.79 C355.00,101.82 355.23,103.48 357.08,105.84 C358.53,107.69 360.39,108.65 363.21,109.00 L 367.26 109.50 ZM 462.50 109.50 L 462.50 121.50 L 454.00 121.75 C445.99,121.98 445.32,121.83 442.35,119.25 C436.55,114.19 436.53,114.04 436.18,81.70 L 435.87 51.91 L 450.50 52.50 L 451.00 79.70 C451.30,95.81 451.91,107.31 452.50,107.89 C453.05,108.43 455.52,109.01 458.00,109.19 ZM 69.64 80.29 C70.66,80.55 79.71,80.82 89.75,80.88 L 108.00 81.00 L 108.00 77.99 C108.00,73.91 104.32,67.15 100.11,63.50 C96.84,60.66 96.18,60.50 88.08,60.52 C81.53,60.53 78.87,60.96 76.85,62.32 C70.64,66.49 65.52,79.23 69.64,80.29 ZM 388.00 84.62 C388.00,85.72 390.54,86.00 400.44,86.00 C407.28,86.00 413.15,85.57 413.47,85.04 C414.15,83.95 411.87,78.46 409.54,75.53 C407.06,72.43 397.04,72.68 393.58,75.92 C392.16,77.26 391.00,78.89 391.00,79.55 C391.00,80.21 390.33,81.32 389.50,82.00 C388.67,82.68 388.00,83.86 388.00,84.62 ZM 232.00 83.02 L 232.00 86.00 L 243.33 86.00 C249.57,86.00 254.90,85.77 255.17,85.49 C255.45,85.21 255.42,83.35 255.09,81.35 C254.24,76.09 250.43,73.57 243.36,73.57 C238.33,73.57 237.49,73.89 234.89,76.80 C233.07,78.83 232.00,81.14 232.00,83.02 Z" fill="rgb(4,96,154)"/>
<path d="M 416.02 96.86 C413.20,96.95 410.04,97.00 406.81,97.00 L 389.75 97.00 L 390.40 100.25 C390.75,102.04 392.39,104.85 394.04,106.50 C394.40,106.86 394.73,107.18 395.04,107.46 C394.74,107.20 394.42,106.90 394.07,106.56 C392.38,104.95 391.00,103.04 391.00,102.31 C391.00,101.59 390.33,101.00 389.50,101.00 C388.61,101.00 388.00,100.08 388.00,98.75 L 388.00 96.50 L 405.75 96.82 C409.57,96.89 413.05,96.90 416.02,96.86 ZM 126.63 57.91 C126.94,58.46 127.25,59.08 127.54,59.75 C128.44,61.81 129.85,64.76 130.67,66.30 C131.49,67.83 132.17,71.10 132.17,73.55 C132.17,76.00 132.58,78.00 133.08,78.00 C133.57,78.00 133.96,81.44 134.00,85.77 C133.87,84.12 133.55,82.84 133.01,82.51 C132.47,82.17 132.07,79.03 132.12,75.54 C132.19,71.04 131.68,68.27 130.39,66.09 C129.39,64.39 128.27,63.00 127.91,63.00 C127.55,63.00 127.25,61.80 127.25,60.33 C127.25,59.54 127.01,58.67 126.63,57.91 ZM 377.20 108.84 C376.76,108.07 376.33,107.25 375.91,106.40 C374.14,102.79 373.63,100.72 373.54,94.79 C373.69,95.15 373.88,95.43 374.11,95.57 C374.77,95.97 374.99,97.66 374.66,99.68 C374.26,102.17 374.52,103.26 375.60,103.68 C376.41,103.99 376.97,104.98 376.84,105.87 C376.70,106.80 376.83,107.80 377.20,108.84 ZM 388.00 84.62 C388.00,83.86 388.67,82.68 389.50,82.00 C390.01,81.57 390.47,80.99 390.74,80.44 C390.07,82.26 389.90,84.03 390.48,84.98 C390.90,85.64 396.69,85.99 402.36,85.99 C401.73,86.00 401.09,86.00 400.44,86.00 C390.54,86.00 388.00,85.72 388.00,84.62 ZM 121.09 132.13 C121.38,131.88 121.59,131.47 121.74,130.89 C122.04,129.75 122.95,129.04 123.91,129.20 C124.82,129.35 126.65,128.47 127.97,127.24 C128.12,127.10 128.25,126.98 128.38,126.86 C127.01,129.10 123.79,131.64 121.09,132.13 ZM 329.52 71.56 C330.61,73.61 331.22,76.03 331.54,79.73 C331.32,78.35 330.98,78.00 330.47,78.00 C329.24,78.00 329.04,77.29 329.54,74.63 C329.78,73.36 329.85,72.48 329.52,71.56 ZM 223.36 68.51 C225.46,66.12 227.69,64.00 228.44,64.00 C228.94,64.00 230.17,63.25 231.17,62.34 C232.27,61.35 233.96,60.91 238.21,60.74 C235.73,60.92 234.45,61.27 234.11,61.83 C233.67,62.53 232.91,63.01 232.41,62.89 C230.71,62.50 226.59,65.35 223.36,68.51 ZM 373.56 88.16 C373.68,82.31 374.20,80.17 375.94,76.63 C375.98,76.54 376.02,76.45 376.07,76.37 C374.89,78.93 374.39,81.43 374.72,83.63 C374.98,85.35 374.70,87.07 374.10,87.44 C373.88,87.57 373.70,87.82 373.56,88.16 ZM 101.89 40.83 C101.54,40.26 100.29,39.91 97.53,39.72 C102.71,39.92 104.67,40.36 106.06,41.33 C106.52,41.65 107.03,41.95 107.54,42.20 C106.27,41.91 105.06,41.80 104.11,41.94 C103.34,42.06 102.34,41.56 101.89,40.83 ZM 111.23 137.17 C109.32,138.05 107.60,138.69 105.77,139.15 C105.93,138.96 106.00,138.73 106.00,138.46 C106.00,137.47 106.80,137.00 108.25,137.13 C109.70,137.27 111.70,136.78 113.42,136.05 C112.74,136.43 112.00,136.80 111.23,137.17 ZM 129.04 125.01 C128.94,125.00 128.82,125.00 128.69,125.00 C127.76,125.00 126.99,124.44 126.99,123.75 C126.97,122.21 119.09,114.47 115.83,112.47 C117.22,113.30 119.49,115.14 121.68,117.25 C124.68,120.14 127.79,123.10 128.59,123.84 C128.92,124.15 129.06,124.55 129.04,125.01 ZM 298.44 63.06 C300.96,61.61 304.36,60.89 309.64,60.77 C305.74,60.89 303.39,61.38 302.88,62.20 C302.52,62.78 301.74,62.95 301.14,62.59 C300.68,62.30 299.58,62.51 298.44,63.06 ZM 99.08 140.00 C99.53,140.00 99.95,140.00 100.34,139.99 C99.46,140.07 98.52,140.12 97.50,140.17 C95.20,140.26 92.86,140.32 90.57,140.34 C90.67,140.32 90.75,140.31 90.83,140.29 C91.56,140.13 95.28,140.00 99.08,140.00 ZM 382.27 115.61 C385.58,118.54 390.02,121.05 394.50,122.13 C389.51,120.92 385.56,118.86 382.27,115.61 ZM 377.58 73.63 C380.00,69.65 382.95,66.78 387.69,63.61 C383.37,66.50 379.87,70.04 377.58,73.63 ZM 133.92 90.68 C133.75,93.98 133.30,95.33 132.35,96.13 C133.12,95.48 133.67,93.20 133.92,90.68 ZM 76.85 40.09 C69.38,40.93 64.61,42.72 61.89,45.62 C64.70,42.63 69.26,40.88 76.85,40.09 ZM 117.00 133.17 L 117.00 133.16 C117.00,132.28 117.64,131.98 118.91,132.27 C117.88,132.40 117.14,132.73 117.00,133.17 ZM 390.95 79.92 C390.98,79.79 391.00,79.66 391.00,79.55 C391.00,78.89 392.16,77.26 393.58,75.92 C392.49,76.97 391.56,78.44 390.95,79.92 ZM 110.05 43.00 C110.84,43.01 111.47,43.24 113.00,44.60 C112.18,43.99 111.14,43.44 110.05,43.00 ZM 250.08 60.77 C253.74,61.00 255.14,61.65 258.00,63.44 C260.83,65.20 263.75,67.89 265.81,70.37 C263.75,67.89 260.82,65.21 258.00,63.46 C255.15,61.70 253.63,61.03 250.08,60.77 ZM 321.63 62.94 C322.41,63.56 323.28,64.37 324.36,65.42 C325.61,66.63 326.65,67.68 327.53,68.71 C326.88,67.99 326.06,67.16 325.04,66.13 C323.63,64.72 322.56,63.70 321.63,62.94 ZM 78.46 140.06 C75.00,139.84 72.44,139.50 71.50,139.08 C72.28,139.43 75.15,139.79 78.46,140.06 ZM 124.67 55.83 C124.85,55.94 124.99,56.00 125.07,56.00 C125.31,56.00 125.74,56.47 126.22,57.22 C125.96,56.86 125.68,56.56 125.38,56.35 C125.15,56.19 124.92,56.02 124.67,55.83 ZM 400.26 73.46 C404.05,73.05 408.08,73.72 409.53,75.53 C408.09,73.73 404.04,73.06 400.26,73.46 ZM 428.21 94.98 C427.88,95.38 427.42,95.63 426.78,95.89 C427.43,95.62 427.88,95.37 428.21,94.98 Z" fill="rgb(70,134,176)"/>
<path d="M 355.20 56.25 L 355.50 62.50 L 355.20 57.25 L 354.90 52.00 L 341.92 52.00 L 342.21 82.25 C342.42,104.11 342.50,110.21 343.42,113.16 C343.31,112.93 343.20,112.70 343.09,112.46 C341.13,108.29 341.00,106.32 341.00,80.21 C341.00,59.91 341.32,52.08 342.20,51.20 C342.86,50.54 345.99,50.00 349.15,50.00 L 354.90 50.00 ZM 450.42 52.50 L 436.82 51.95 C436.89,51.71 436.97,51.54 437.05,51.43 C437.84,50.49 440.22,50.00 444.01,50.00 C449.13,50.00 449.83,50.25 450.37,52.25 C450.39,52.31 450.40,52.39 450.42,52.50 ZM 124.67 55.83 C123.12,54.61 120.89,52.43 113.88,45.35 C113.63,45.09 113.33,44.84 113.00,44.60 C112.53,44.18 112.14,43.87 111.81,43.64 C115.59,45.55 121.89,51.39 125.40,56.17 C125.27,56.06 125.16,56.00 125.07,56.00 C124.99,56.00 124.85,55.94 124.67,55.83 ZM 129.04 125.01 C129.06,124.55 128.92,124.15 128.59,123.84 C127.79,123.10 124.68,120.14 121.68,117.25 C119.49,115.14 117.22,113.30 115.83,112.47 C115.57,112.31 115.34,112.19 115.15,112.11 C116.19,112.50 118.11,113.87 119.82,115.49 C121.84,117.41 123.84,118.99 124.25,118.99 C125.36,119.00 128.84,122.68 129.17,124.19 C129.23,124.43 129.20,124.71 129.12,125.02 C129.09,125.02 129.07,125.01 129.04,125.01 ZM 121.09 132.13 C121.92,131.98 122.80,131.64 123.66,131.17 C122.79,131.78 121.89,132.31 121.01,132.70 C119.08,133.57 114.80,135.52 111.50,137.05 C109.44,138.01 107.66,138.68 105.77,139.16 L 105.77 139.15 C107.60,138.69 109.32,138.05 111.23,137.17 C112.00,136.80 112.74,136.43 113.42,136.05 C115.39,135.22 116.99,134.08 117.00,133.17 C117.14,132.73 117.88,132.40 118.91,132.27 C118.98,132.28 119.04,132.30 119.11,132.32 C120.03,132.56 120.65,132.52 121.09,132.13 ZM 264.36 68.74 C265.88,70.33 267.36,72.13 268.82,74.18 C269.54,75.20 270.17,77.37 270.22,79.02 C270.23,79.38 270.26,79.74 270.30,80.07 C269.99,79.12 269.55,78.34 269.12,78.08 C268.47,77.67 268.19,76.66 268.51,75.83 L 268.51 75.83 L 268.51 75.83 C268.90,74.81 267.73,72.68 265.81,70.37 C265.36,69.83 264.87,69.28 264.36,68.74 ZM 270.62 81.53 C270.74,81.83 270.88,82.00 271.02,82.00 C271.42,82.00 271.80,84.67 271.87,87.94 C271.91,89.52 271.92,90.82 271.80,91.89 C271.80,91.10 271.71,90.19 271.57,89.13 C271.24,86.58 270.82,83.22 270.64,81.66 C270.63,81.62 270.63,81.57 270.62,81.53 ZM 451.15 86.66 C451.10,84.46 451.04,82.13 451.00,79.70 L 450.52 53.52 C450.79,57.16 451.03,67.56 451.09,79.00 C451.10,81.63 451.12,84.20 451.15,86.66 ZM 131.19 67.53 C131.72,69.04 132.14,70.99 132.19,72.45 C132.26,74.40 132.70,76.00 133.16,76.00 C133.62,76.00 134.00,80.22 134.00,85.38 C134.00,85.52 134.00,85.66 134.00,85.80 L 134.00 85.77 C133.96,81.44 133.57,78.00 133.08,78.00 C132.58,78.00 132.17,76.00 132.17,73.55 C132.17,71.63 131.76,69.22 131.19,67.53 ZM 462.50 109.50 L 458.00 109.19 C455.52,109.01 453.05,108.43 452.50,107.89 C452.42,107.81 452.33,107.50 452.25,106.99 C452.88,108.29 454.06,108.65 457.54,109.00 ZM 345.26 116.34 C348.57,120.71 351.83,121.84 359.88,121.66 L 367.26 121.50 L 359.88 121.67 C352.03,121.86 348.27,120.69 345.26,116.34 ZM 250.08 60.77 C249.23,60.71 248.27,60.67 247.15,60.65 C252.20,60.71 253.90,61.05 256.35,62.45 C254.44,61.40 252.97,60.95 250.08,60.77 ZM 267.41 96.29 C264.24,96.97 258.85,97.00 249.78,97.00 C258.73,97.00 264.18,96.92 267.41,96.29 ZM 436.13 76.88 L 436.18 81.70 C436.43,105.08 436.51,111.63 438.73,115.38 C436.52,111.65 436.43,105.17 436.18,82.18 C436.16,80.32 436.14,78.55 436.13,76.88 ZM 114.69 112.00 C113.82,112.03 110.77,113.69 107.85,115.72 C110.79,113.68 113.86,112.00 114.67,112.00 C114.68,112.00 114.68,112.00 114.69,112.00 ZM 90.56 140.34 L 90.57 140.34 C92.86,140.32 95.20,140.26 97.50,140.17 C98.52,140.12 99.46,140.07 100.34,139.99 L 100.41 139.99 C99.51,140.07 98.55,140.12 97.50,140.17 C95.19,140.26 92.85,140.32 90.56,140.34 ZM 238.53 60.72 C238.42,60.73 238.31,60.74 238.21,60.74 C236.14,60.83 234.67,60.97 233.59,61.22 C234.73,60.96 236.29,60.81 238.53,60.72 Z" fill="rgb(115,166,200)"/>
<path d="M 362.56 76.00 C360.72,76.07 358.82,76.58 358.20,77.20 C356.73,78.67 356.55,102.78 357.91,106.76 C357.62,106.48 357.34,106.18 357.08,105.84 C355.23,103.48 355.00,101.82 355.00,90.79 C355.00,82.49 355.40,78.00 356.20,77.20 C356.86,76.54 359.56,76.00 362.20,76.00 ZM 355.20 56.25 L 354.95 51.01 C355.21,51.14 355.42,51.28 355.57,51.43 C356.36,52.21 357.00,54.37 357.00,56.23 C357.00,60.58 358.51,62.00 363.16,62.00 C365.86,62.00 367.22,62.55 367.96,63.93 C369.35,66.52 369.27,70.02 367.75,73.29 C367.50,73.82 367.26,74.25 367.00,74.60 L 367.00 71.08 C367.00,68.38 367.26,65.47 367.59,64.63 C368.07,63.37 367.05,63.05 361.84,62.80 L 355.50 62.50 ZM 216.61 83.30 C216.11,90.11 216.58,101.22 217.83,105.38 C217.37,104.98 217.00,103.76 217.00,102.56 C217.00,101.29 216.32,99.68 215.50,99.00 C214.46,98.14 214.00,95.84 214.00,91.48 C214.00,86.83 214.39,85.07 215.50,84.64 C215.95,84.46 216.34,83.97 216.61,83.30 ZM 428.15 78.97 C428.81,81.01 429.67,82.96 430.12,83.45 C430.60,83.97 431.00,86.98 431.00,90.14 C431.00,94.88 430.70,95.90 429.25,96.02 C428.95,96.05 427.82,96.09 426.09,96.15 C426.15,96.13 426.20,96.12 426.25,96.10 C426.44,96.03 426.62,95.96 426.78,95.89 C427.42,95.63 427.88,95.38 428.21,94.98 C428.95,94.07 429.00,92.43 429.00,88.17 C429.00,84.99 428.64,81.20 428.15,78.97 ZM 90.56 140.34 C92.85,140.32 95.19,140.26 97.50,140.17 C97.81,140.16 98.11,140.14 98.41,140.13 C96.98,140.30 96.00,140.63 96.00,141.00 C96.00,142.28 84.98,142.28 83.00,141.00 C82.40,140.61 80.88,140.28 79.20,140.12 C83.69,140.45 88.75,140.60 90.56,140.34 ZM 367.26 115.50 L 367.26 109.84 C367.49,109.95 367.67,110.07 367.80,110.20 C369.64,112.04 369.35,120.65 367.42,121.39 C367.37,121.41 367.32,121.43 367.26,121.45 ZM 105.44 70.24 C107.00,73.00 108.00,75.86 108.00,77.99 L 108.00 81.00 L 89.75 80.88 C107.37,81.00 108.00,80.93 108.00,79.00 C108.00,77.90 107.50,77.00 106.88,77.00 C106.24,77.00 106.00,76.11 106.31,74.91 C106.64,73.67 106.29,72.02 105.44,70.24 ZM 269.86 76.70 C270.31,77.63 270.74,78.53 271.00,79.06 C271.43,79.91 271.82,83.60 271.88,87.26 C271.88,87.90 271.89,88.49 271.89,89.05 C271.89,88.69 271.88,88.33 271.87,87.94 C271.80,84.67 271.42,82.00 271.02,82.00 C270.88,82.00 270.74,81.83 270.62,81.53 C270.56,81.03 270.44,80.53 270.30,80.07 C270.26,79.74 270.23,79.38 270.22,79.02 C270.20,78.30 270.07,77.48 269.86,76.70 ZM 132.17 72.08 C132.35,72.74 132.66,73.29 133.00,73.50 C133.56,73.85 134.00,78.64 134.00,84.44 C134.00,84.64 134.00,84.84 134.00,85.03 C133.98,80.03 133.61,76.00 133.16,76.00 C132.70,76.00 132.26,74.40 132.19,72.45 C132.19,72.33 132.18,72.21 132.17,72.08 ZM 367.00 121.51 C365.68,121.78 362.40,121.95 359.17,121.90 C355.58,121.85 352.86,121.51 350.68,120.68 C352.99,121.51 355.91,121.77 359.88,121.67 ZM 55.06 129.67 C51.07,125.93 48.31,121.00 45.17,113.00 C48.04,120.32 50.32,124.31 54.06,128.58 C54.40,128.96 54.73,129.32 55.06,129.67 ZM 78.25 140.04 C77.91,140.03 77.57,140.02 77.24,140.02 C74.89,140.01 72.19,139.58 71.24,139.07 C70.81,138.84 70.02,138.45 69.06,137.98 C69.83,138.32 70.64,138.69 71.50,139.08 C72.42,139.49 74.90,139.83 78.25,140.04 ZM 105.62 139.29 C105.68,139.25 105.72,139.20 105.77,139.16 C107.66,138.68 109.44,138.01 111.50,137.05 C114.80,135.52 119.08,133.57 121.01,132.70 C119.08,133.57 114.76,135.56 111.42,137.14 C109.40,138.09 107.45,138.81 105.62,139.29 ZM 224.08 115.93 C225.91,117.59 227.83,119.00 228.63,119.00 C227.60,119.00 225.81,117.68 224.08,115.93 ZM 348.46 50.01 C345.54,50.08 342.81,50.59 342.20,51.20 C343.01,50.39 345.69,50.00 348.46,50.01 ZM 394.75 97.00 L 389.78 97.13 L 389.75 97.00 ZM 262.77 67.17 C264.70,68.91 266.40,70.80 267.64,72.59 C266.57,71.18 265.48,69.91 264.36,68.74 C263.85,68.21 263.32,67.68 262.77,67.17 ZM 131.19 67.53 C131.12,67.34 131.06,67.17 131.00,67.01 C131.54,68.27 131.95,69.75 132.00,70.68 C131.81,69.61 131.52,68.48 131.19,67.53 ZM 423.61 70.40 C421.31,67.52 418.45,64.98 415.55,63.38 C418.53,65.02 421.34,67.52 423.61,70.40 ZM 267.41 96.29 C267.49,96.27 267.57,96.26 267.65,96.24 C264.51,96.99 259.10,97.00 249.78,97.00 C258.85,97.00 264.24,96.97 267.41,96.29 ZM 363.27 109.01 C364.07,109.04 364.88,109.14 365.59,109.29 ZM 228.44 64.00 C227.69,64.00 225.46,66.12 223.36,68.51 C225.45,66.11 227.66,64.00 228.44,64.00 ZM 219.90 110.29 C219.73,109.92 219.61,109.57 219.55,109.26 C219.53,109.20 219.52,109.14 219.51,109.09 C219.68,109.54 219.82,109.95 219.90,110.29 ZM 217.46 78.32 C217.61,77.92 217.80,77.62 218.00,77.50 C218.03,77.48 218.07,77.45 218.10,77.43 C217.99,77.58 217.87,77.73 217.75,77.85 C217.65,77.95 217.55,78.11 217.46,78.32 ZM 100.28 140.00 C100.32,140.00 100.37,140.00 100.41,139.99 C100.85,139.99 101.26,139.98 101.64,139.97 C101.31,139.99 100.99,140.00 100.67,140.00 C100.54,140.00 100.41,140.00 100.28,140.00 ZM 253.62 61.26 C254.61,61.54 255.46,61.94 256.44,62.51 C256.41,62.49 256.38,62.47 256.35,62.45 C255.40,61.91 254.57,61.53 253.62,61.26 Z" fill="rgb(157,198,224)"/>
<path d="M 278.67 121.31 C278.61,121.28 278.55,121.24 278.49,121.20 C275.96,119.49 275.97,114.03 275.99,97.70 C276.00,95.94 276.00,94.05 276.00,92.03 C276.00,76.70 276.27,63.45 276.61,62.58 C277.09,61.32 278.87,61.00 285.49,61.00 C285.71,61.00 285.92,61.00 286.13,61.00 C280.71,61.01 279.07,61.37 278.61,62.58 C277.76,64.78 277.84,119.11 278.67,121.31 ZM 362.56 76.00 L 367.00 76.00 L 367.00 74.60 C367.26,74.25 367.50,73.82 367.75,73.29 C368.51,71.65 368.91,69.96 368.95,68.35 C368.98,68.97 369.00,69.64 369.00,70.38 C369.00,75.78 366.60,78.00 360.78,78.00 L 357.86 78.00 C357.97,77.60 358.08,77.32 358.20,77.20 C358.82,76.58 360.72,76.07 362.56,76.00 ZM 93.31 80.90 C104.42,80.86 105.33,80.13 106.18,75.85 C106.17,76.55 106.43,77.00 106.88,77.00 C107.50,77.00 108.00,77.90 108.00,79.00 C108.00,80.79 107.46,80.98 93.31,80.90 ZM 260.60 105.20 C263.37,105.11 265.88,106.97 267.84,110.68 C268.01,111.00 268.14,111.29 268.23,111.55 C268.07,111.36 267.84,111.17 267.57,110.94 C266.60,110.15 264.79,108.49 263.54,107.25 C262.38,106.09 261.49,105.42 260.60,105.20 ZM 105.62 139.29 C106.34,139.10 107.08,138.88 107.83,138.61 C105.91,139.36 103.96,140.06 102.50,140.49 C99.62,141.35 96.03,141.81 92.20,141.91 C94.34,141.80 96.00,141.50 96.00,141.00 C96.00,140.63 96.98,140.30 98.41,140.13 C99.07,140.09 99.69,140.05 100.28,140.00 C100.41,140.00 100.54,140.00 100.67,140.00 C100.99,140.00 101.31,139.99 101.64,139.97 C103.91,139.90 105.09,139.71 105.62,139.29 ZM 217.83 105.39 C217.37,105.00 217.00,103.94 217.00,102.94 C217.00,101.87 216.32,101.00 215.50,101.00 C214.28,101.00 214.00,99.33 214.00,91.97 C214.00,91.86 214.00,91.75 214.00,91.65 C214.01,95.90 214.47,98.15 215.50,99.00 C216.32,99.68 217.00,101.29 217.00,102.56 C217.00,103.76 217.37,104.98 217.83,105.38 ZM 216.61 83.30 C216.34,83.97 215.95,84.46 215.50,84.64 C214.45,85.04 214.04,86.64 214.00,90.74 C214.04,84.62 214.39,82.79 215.50,82.36 C216.12,82.12 216.65,81.46 216.88,80.71 C216.77,81.47 216.68,82.34 216.61,83.30 ZM 78.25 140.04 C78.32,140.05 78.39,140.05 78.46,140.06 C78.71,140.08 78.96,140.10 79.20,140.12 C80.88,140.28 82.40,140.61 83.00,141.00 C83.62,141.40 85.11,141.67 86.88,141.83 C82.49,141.57 78.06,140.89 74.21,139.80 C75.17,139.93 76.24,140.01 77.24,140.02 C77.57,140.02 77.91,140.03 78.25,140.04 ZM 126.63 57.91 C126.51,57.67 126.37,57.43 126.22,57.22 C125.91,56.74 125.63,56.37 125.40,56.17 C123.93,54.17 121.98,51.99 119.93,49.99 C123.22,53.15 126.26,56.76 127.49,59.33 C128.44,61.35 129.58,63.00 130.02,63.00 C130.46,63.00 131.12,65.25 131.50,68.00 C131.53,68.23 131.56,68.45 131.60,68.68 C131.44,68.12 131.23,67.55 131.00,67.01 C130.89,66.74 130.78,66.50 130.67,66.30 C129.85,64.76 128.44,61.81 127.54,59.75 C127.25,59.08 126.94,58.46 126.63,57.91 ZM 357.92 106.77 L 357.91 106.76 C357.20,104.70 356.91,97.24 357.00,90.33 L 357.00 91.57 C357.00,98.53 357.41,105.06 357.92,106.77 ZM 132.17 72.08 C132.14,71.67 132.08,71.22 132.01,70.76 C132.36,72.25 132.77,73.36 133.09,73.56 C133.59,73.87 134.00,78.76 134.00,84.44 C134.00,78.64 133.56,73.85 133.00,73.50 C132.66,73.29 132.35,72.74 132.17,72.08 ZM 68.98 137.94 C65.94,136.67 63.34,135.42 61.07,134.08 C63.02,135.15 65.53,136.36 68.98,137.94 ZM 284.12 121.85 C281.97,121.95 280.38,121.99 279.22,121.57 C280.09,121.75 281.93,121.86 284.12,121.85 ZM 105.44 70.24 C106.28,71.98 106.62,73.61 106.33,74.84 C106.46,73.35 106.12,71.74 105.37,70.11 C105.39,70.15 105.42,70.19 105.44,70.24 ZM 265.46 115.72 C266.55,114.78 267.32,114.09 267.83,113.55 C267.35,114.17 266.52,114.91 265.25,115.96 C264.15,116.87 262.84,117.77 261.65,118.46 C262.90,117.72 264.29,116.73 265.46,115.72 ZM 217.46 78.32 C217.28,78.71 217.13,79.28 217.00,79.99 C217.00,79.97 217.00,79.96 217.00,79.95 C217.00,78.94 217.45,77.84 218.00,77.50 C217.80,77.62 217.61,77.92 217.46,78.32 ZM 294.32 63.12 C294.22,62.74 294.11,62.42 293.94,62.16 C294.11,62.42 294.22,62.74 294.32,63.12 ZM 129.12 125.02 L 129.12 125.02 C129.17,124.83 129.20,124.66 129.20,124.50 C129.20,124.66 129.17,124.83 129.12,125.02 Z" fill="rgb(207,233,247)"/>
<path d="M 0.00 91.50 L 0.00 0.00 L 252.00 0.00 L 504.00 0.00 L 504.00 91.50 L 504.00 183.00 L 252.00 183.00 L 0.00 183.00 L 0.00 91.50 ZM 102.50 140.49 C105.25,139.67 109.75,137.93 112.50,136.62 C115.25,135.31 119.08,133.54 121.01,132.69 C125.01,130.91 129.60,126.14 129.17,124.19 C128.84,122.68 125.36,119.00 124.25,118.99 C123.84,118.99 121.84,117.41 119.82,115.49 C117.79,113.57 115.47,112.00 114.67,112.00 C113.86,112.00 110.79,113.68 107.85,115.72 L 102.50 119.45 L 91.44 119.47 C80.69,119.50 80.29,119.42 76.94,116.61 C71.72,112.22 68.89,107.46 68.69,102.71 L 68.50 98.50 L 99.60 98.00 C123.91,97.61 131.06,97.20 132.35,96.13 C133.69,95.01 134.00,92.81 134.00,84.44 C134.00,78.76 133.59,73.87 133.09,73.56 C132.60,73.25 131.88,70.75 131.50,68.00 C131.12,65.25 130.46,63.00 130.02,63.00 C129.58,63.00 128.44,61.35 127.49,59.33 C124.80,53.66 113.24,43.00 109.79,43.00 C109.05,43.00 107.37,42.25 106.06,41.33 C104.12,39.97 101.05,39.65 89.59,39.59 C73.90,39.52 66.01,41.24 61.89,45.62 C60.66,46.93 59.11,48.00 58.45,48.00 C56.25,48.00 49.19,58.39 45.86,66.50 C42.62,74.41 42.58,74.69 42.60,90.50 C42.62,105.25 42.82,107.01 45.17,113.00 C50.92,127.64 55.99,132.76 70.50,138.56 C79.45,142.14 94.01,143.02 102.50,140.49 ZM 255.31 121.21 C255.96,120.70 257.62,120.00 259.00,119.67 C260.38,119.34 263.19,117.67 265.25,115.96 C268.57,113.21 268.86,112.61 267.84,110.68 C264.87,105.07 260.65,103.70 256.15,106.88 C252.55,109.42 247.85,110.31 242.21,109.51 C238.38,108.96 236.99,108.17 234.75,105.26 C233.24,103.29 232.00,100.63 232.00,99.34 L 232.00 97.00 L 249.78 97.00 C271.85,97.00 272.02,96.92 271.88,87.26 C271.82,83.60 271.43,79.91 271.00,79.06 C270.58,78.20 269.71,76.38 269.06,75.00 C267.31,71.26 262.65,66.44 257.81,63.35 C253.81,60.80 252.76,60.60 243.25,60.64 C235.16,60.68 232.62,61.03 231.17,62.34 C230.17,63.25 228.94,64.00 228.44,64.00 C226.81,64.00 219.00,73.12 219.00,75.03 C219.00,76.05 218.55,77.16 218.00,77.50 C217.45,77.84 217.00,78.94 217.00,79.95 C217.00,80.96 216.32,82.05 215.50,82.36 C214.32,82.81 214.00,84.86 214.00,91.97 C214.00,99.33 214.28,101.00 215.50,101.00 C216.32,101.00 217.00,101.87 217.00,102.94 C217.00,104.01 217.42,105.14 217.92,105.45 C218.43,105.77 219.16,107.48 219.55,109.26 C220.23,112.44 226.35,119.00 228.63,119.00 C229.25,119.00 230.29,119.65 230.95,120.44 C231.61,121.24 233.81,122.09 235.83,122.34 C241.31,123.01 253.95,122.28 255.31,121.21 ZM 413.31 121.19 C413.96,120.66 415.85,119.93 417.50,119.56 C419.15,119.19 422.05,117.57 423.94,115.96 L 427.38 113.03 L 423.44 109.03 C418.94,104.46 416.63,104.06 413.23,107.25 C411.23,109.13 409.72,109.50 403.94,109.50 C397.60,109.50 396.79,109.25 394.04,106.50 C392.39,104.85 390.76,102.07 390.41,100.31 L 389.78 97.13 L 408.64 96.65 C419.01,96.39 428.29,96.10 429.25,96.02 C430.70,95.90 431.00,94.88 431.00,90.14 C431.00,86.98 430.60,83.97 430.12,83.45 C429.64,82.93 428.68,80.70 428.00,78.50 C426.14,72.54 421.12,66.45 415.55,63.38 C411.11,60.94 409.62,60.66 401.24,60.73 C392.73,60.80 391.51,61.06 387.69,63.61 C381.83,67.52 378.72,70.97 375.94,76.63 C373.90,80.77 373.54,83.00 373.52,91.50 C373.50,100.07 373.84,102.20 375.91,106.40 C380.33,115.37 385.84,120.03 394.50,122.13 C398.43,123.09 411.78,122.42 413.31,121.19 ZM 294.00 100.81 L 294.50 80.13 L 297.44 77.06 C302.92,71.35 311.33,73.40 314.78,81.30 C315.60,83.18 316.00,90.33 316.00,103.09 L 316.00 122.08 L 323.75 121.79 L 331.50 121.50 L 331.77 99.42 C332.08,74.07 331.76,72.61 324.36,65.42 C320.41,61.58 319.21,60.98 315.16,60.83 C306.34,60.51 301.49,61.19 298.19,63.21 L 294.88 65.24 L 294.32 63.12 C293.81,61.18 293.08,61.00 285.49,61.00 C278.87,61.00 277.09,61.32 276.61,62.58 C276.27,63.45 276.00,76.70 276.00,92.03 C276.00,124.25 275.25,122.13 286.50,121.74 L 293.50 121.50 L 294.00 100.81 ZM 367.42 121.39 C369.35,120.65 369.64,112.04 367.80,110.20 C367.14,109.54 364.91,109.00 362.84,109.00 C360.14,109.00 358.78,108.45 358.04,107.07 C357.47,106.00 357.00,99.03 357.00,91.57 L 357.00 78.00 L 360.78 78.00 C366.60,78.00 369.00,75.78 369.00,70.38 C369.00,63.87 367.70,62.00 363.16,62.00 C358.51,62.00 357.00,60.58 357.00,56.23 C357.00,54.37 356.36,52.21 355.57,51.43 C353.81,49.66 343.91,49.49 342.20,51.20 C341.32,52.08 341.00,59.91 341.00,80.21 C341.00,106.32 341.13,108.29 343.09,112.46 C346.51,119.74 349.96,121.77 359.17,121.90 C362.84,121.96 366.55,121.73 367.42,121.39 ZM 462.50 115.50 L 462.50 109.50 L 457.54 109.00 C453.30,108.57 452.48,108.14 451.89,106.00 C451.51,104.62 451.15,92.47 451.09,79.00 C451.02,65.53 450.70,53.49 450.37,52.25 C449.83,50.25 449.13,50.00 444.01,50.00 C440.22,50.00 437.84,50.49 437.05,51.43 C436.18,52.49 435.95,60.57 436.18,82.18 C436.53,113.99 436.56,114.20 442.35,119.25 C445.32,121.83 445.99,121.98 454.00,121.75 L 462.50 121.50 L 462.50 115.50 ZM 69.64 80.29 C65.52,79.23 70.64,66.49 76.85,62.32 C78.87,60.96 81.53,60.53 88.08,60.52 C96.18,60.50 96.84,60.66 100.12,63.50 C104.67,67.44 106.93,71.91 106.23,75.57 C105.23,80.79 104.45,81.01 87.32,80.88 C78.62,80.82 70.66,80.55 69.64,80.29 ZM 232.00 83.02 C232.00,81.14 233.07,78.83 234.89,76.80 C237.49,73.89 238.33,73.57 243.36,73.57 C250.43,73.57 254.24,76.09 255.09,81.35 C255.42,83.35 255.45,85.21 255.17,85.49 C254.90,85.77 249.57,86.00 243.33,86.00 L 232.00 86.00 L 232.00 83.02 ZM 390.48 84.98 C389.36,83.16 391.04,78.32 393.63,75.88 C397.04,72.68 407.08,72.46 409.54,75.53 C411.87,78.46 414.15,83.95 413.47,85.04 C412.67,86.35 391.29,86.28 390.48,84.98 Z" fill="rgb(248,81,6)"/>
<path d="M 0.00 91.50 L 0.00 0.00 L 252.00 0.00 L 504.00 0.00 L 504.00 91.50 L 504.00 183.00 L 252.00 183.00 L 0.00 183.00 L 0.00 91.50 ZM 102.50 140.49 C105.25,139.67 109.75,137.93 112.50,136.62 C115.25,135.31 119.08,133.54 121.01,132.69 C125.01,130.91 129.60,126.14 129.17,124.19 C128.84,122.68 125.36,119.00 124.25,118.99 C123.84,118.99 121.84,117.41 119.82,115.49 C117.79,113.57 115.47,112.00 114.67,112.00 C113.86,112.00 110.79,113.68 107.85,115.72 L 102.50 119.45 L 91.44 119.47 C80.69,119.50 80.29,119.42 76.94,116.61 C71.72,112.22 68.89,107.46 68.69,102.71 L 68.50 98.50 L 99.60 98.00 C123.91,97.61 131.06,97.20 132.35,96.13 C133.69,95.01 134.00,92.81 134.00,84.44 C134.00,78.76 133.59,73.87 133.09,73.56 C132.60,73.25 131.88,70.75 131.50,68.00 C131.12,65.25 130.46,63.00 130.02,63.00 C129.58,63.00 128.44,61.35 127.49,59.33 C124.80,53.66 113.24,43.00 109.79,43.00 C109.05,43.00 107.37,42.25 106.06,41.33 C104.12,39.97 101.05,39.65 89.59,39.59 C73.90,39.52 66.01,41.24 61.89,45.62 C60.66,46.93 59.11,48.00 58.45,48.00 C56.25,48.00 49.19,58.39 45.86,66.50 C42.62,74.41 42.58,74.69 42.60,90.50 C42.62,105.25 42.82,107.01 45.17,113.00 C50.92,127.64 55.99,132.76 70.50,138.56 C79.45,142.14 94.01,143.02 102.50,140.49 ZM 162.35 132.61 C180.67,114.28 184.25,82.65 170.59,59.71 C165.99,51.98 158.50,44.00 155.84,44.00 C153.95,44.00 143.00,53.98 143.00,55.70 C143.00,56.26 144.10,57.89 145.43,59.33 C150.01,64.27 152.69,68.50 155.44,75.13 C157.93,81.11 158.16,82.69 157.82,91.13 C157.53,98.14 156.87,101.69 155.22,105.20 C154.00,107.78 153.00,110.52 153.00,111.29 C153.00,112.06 152.10,113.50 151.00,114.50 C149.90,115.50 149.00,116.80 149.00,117.40 C149.00,118.01 147.43,120.27 145.50,122.43 C142.13,126.22 142.07,126.42 143.75,128.43 C147.47,132.86 153.58,137.94 155.23,137.97 C156.18,137.99 159.38,135.57 162.35,132.61 ZM 255.31 121.21 C255.96,120.70 257.62,120.00 259.00,119.67 C260.38,119.34 263.19,117.67 265.25,115.96 C268.57,113.21 268.86,112.61 267.84,110.68 C264.87,105.07 260.65,103.70 256.15,106.88 C252.55,109.42 247.85,110.31 242.21,109.51 C238.38,108.96 236.99,108.17 234.75,105.26 C233.24,103.29 232.00,100.63 232.00,99.34 L 232.00 97.00 L 249.78 97.00 C271.85,97.00 272.02,96.92 271.88,87.26 C271.82,83.60 271.43,79.91 271.00,79.06 C270.58,78.20 269.71,76.38 269.06,75.00 C267.31,71.26 262.65,66.44 257.81,63.35 C253.81,60.80 252.76,60.60 243.25,60.64 C235.16,60.68 232.62,61.03 231.17,62.34 C230.17,63.25 228.94,64.00 228.44,64.00 C226.81,64.00 219.00,73.12 219.00,75.03 C219.00,76.05 218.55,77.16 218.00,77.50 C217.45,77.84 217.00,78.94 217.00,79.95 C217.00,80.96 216.32,82.05 215.50,82.36 C214.32,82.81 214.00,84.86 214.00,91.97 C214.00,99.33 214.28,101.00 215.50,101.00 C216.32,101.00 217.00,101.87 217.00,102.94 C217.00,104.01 217.42,105.14 217.92,105.45 C218.43,105.77 219.16,107.48 219.55,109.26 C220.23,112.44 226.35,119.00 228.63,119.00 C229.25,119.00 230.29,119.65 230.95,120.44 C231.61,121.24 233.81,122.09 235.83,122.34 C241.31,123.01 253.95,122.28 255.31,121.21 ZM 413.31 121.19 C413.96,120.66 415.85,119.93 417.50,119.56 C419.15,119.19 422.05,117.57 423.94,115.96 L 427.38 113.03 L 423.44 109.03 C418.94,104.46 416.63,104.06 413.23,107.25 C411.23,109.13 409.72,109.50 403.94,109.50 C397.60,109.50 396.79,109.25 394.04,106.50 C392.39,104.85 390.76,102.07 390.41,100.31 L 389.78 97.13 L 408.64 96.65 C419.01,96.39 428.29,96.10 429.25,96.02 C430.70,95.90 431.00,94.88 431.00,90.14 C431.00,86.98 430.60,83.97 430.12,83.45 C429.64,82.93 428.68,80.70 428.00,78.50 C426.14,72.54 421.12,66.45 415.55,63.38 C411.11,60.94 409.62,60.66 401.24,60.73 C392.73,60.80 391.51,61.06 387.69,63.61 C381.83,67.52 378.72,70.97 375.94,76.63 C373.90,80.77 373.54,83.00 373.52,91.50 C373.50,100.07 373.84,102.20 375.91,106.40 C380.33,115.37 385.84,120.03 394.50,122.13 C398.43,123.09 411.78,122.42 413.31,121.19 ZM 294.00 100.81 L 294.50 80.13 L 297.44 77.06 C302.92,71.35 311.33,73.40 314.78,81.30 C315.60,83.18 316.00,90.33 316.00,103.09 L 316.00 122.08 L 323.75 121.79 L 331.50 121.50 L 331.77 99.42 C332.08,74.07 331.76,72.61 324.36,65.42 C320.41,61.58 319.21,60.98 315.16,60.83 C306.34,60.51 301.49,61.19 298.19,63.21 L 294.88 65.24 L 294.32 63.12 C293.81,61.18 293.08,61.00 285.49,61.00 C278.87,61.00 277.09,61.32 276.61,62.58 C276.27,63.45 276.00,76.70 276.00,92.03 C276.00,124.25 275.25,122.13 286.50,121.74 L 293.50 121.50 L 294.00 100.81 ZM 367.42 121.39 C369.35,120.65 369.64,112.04 367.80,110.20 C367.14,109.54 364.91,109.00 362.84,109.00 C360.14,109.00 358.78,108.45 358.04,107.07 C357.47,106.00 357.00,99.03 357.00,91.57 L 357.00 78.00 L 360.78 78.00 C366.60,78.00 369.00,75.78 369.00,70.38 C369.00,63.87 367.70,62.00 363.16,62.00 C358.51,62.00 357.00,60.58 357.00,56.23 C357.00,54.37 356.36,52.21 355.57,51.43 C353.81,49.66 343.91,49.49 342.20,51.20 C341.32,52.08 341.00,59.91 341.00,80.21 C341.00,106.32 341.13,108.29 343.09,112.46 C346.51,119.74 349.96,121.77 359.17,121.90 C362.84,121.96 366.55,121.73 367.42,121.39 ZM 462.50 115.50 L 462.50 109.50 L 457.54 109.00 C453.30,108.57 452.48,108.14 451.89,106.00 C451.51,104.62 451.15,92.47 451.09,79.00 C451.02,65.53 450.70,53.49 450.37,52.25 C449.83,50.25 449.13,50.00 444.01,50.00 C440.22,50.00 437.84,50.49 437.05,51.43 C436.18,52.49 435.95,60.57 436.18,82.18 C436.53,113.99 436.56,114.20 442.35,119.25 C445.32,121.83 445.99,121.98 454.00,121.75 L 462.50 121.50 L 462.50 115.50 ZM 69.64 80.29 C65.52,79.23 70.64,66.49 76.85,62.32 C78.87,60.96 81.53,60.53 88.08,60.52 C96.18,60.50 96.84,60.66 100.12,63.50 C104.67,67.44 106.93,71.91 106.23,75.57 C105.23,80.79 104.45,81.01 87.32,80.88 C78.62,80.82 70.66,80.55 69.64,80.29 ZM 232.00 83.02 C232.00,81.14 233.07,78.83 234.89,76.80 C237.49,73.89 238.33,73.57 243.36,73.57 C250.43,73.57 254.24,76.09 255.09,81.35 C255.42,83.35 255.45,85.21 255.17,85.49 C254.90,85.77 249.57,86.00 243.33,86.00 L 232.00 86.00 L 232.00 83.02 ZM 390.48 84.98 C389.36,83.16 391.04,78.32 393.63,75.88 C397.04,72.68 407.08,72.46 409.54,75.53 C411.87,78.46 414.15,83.95 413.47,85.04 C412.67,86.35 391.29,86.28 390.48,84.98 Z" fill="rgb(252,206,181)"/>
<path d="M 0.00 91.50 L 0.00 0.00 L 252.00 0.00 L 504.00 0.00 L 504.00 91.50 L 504.00 183.00 L 252.00 183.00 L 0.00 183.00 L 0.00 91.50 ZM 102.50 140.49 C105.25,139.67 109.75,137.93 112.50,136.62 C115.25,135.31 119.08,133.54 121.01,132.69 C125.01,130.91 129.60,126.14 129.17,124.19 C128.84,122.68 125.36,119.00 124.25,118.99 C123.84,118.99 121.84,117.41 119.82,115.49 C117.79,113.57 115.47,112.00 114.67,112.00 C113.86,112.00 110.79,113.68 107.85,115.72 L 102.50 119.45 L 91.44 119.47 C80.69,119.50 80.29,119.42 76.94,116.61 C71.72,112.22 68.89,107.46 68.69,102.71 L 68.50 98.50 L 99.60 98.00 C123.91,97.61 131.06,97.20 132.35,96.13 C133.69,95.01 134.00,92.81 134.00,84.44 C134.00,78.76 133.59,73.87 133.09,73.56 C132.60,73.25 131.88,70.75 131.50,68.00 C131.12,65.25 130.46,63.00 130.02,63.00 C129.58,63.00 128.44,61.35 127.49,59.33 C124.80,53.66 113.24,43.00 109.79,43.00 C109.05,43.00 107.37,42.25 106.06,41.33 C104.12,39.97 101.05,39.65 89.59,39.59 C73.90,39.52 66.01,41.24 61.89,45.62 C60.66,46.93 59.11,48.00 58.45,48.00 C56.25,48.00 49.19,58.39 45.86,66.50 C42.62,74.41 42.58,74.69 42.60,90.50 C42.62,105.25 42.82,107.01 45.17,113.00 C50.92,127.64 55.99,132.76 70.50,138.56 C79.45,142.14 94.01,143.02 102.50,140.49 ZM 162.35 132.61 C180.67,114.28 184.25,82.65 170.59,59.71 C165.99,51.98 158.50,44.00 155.84,44.00 C153.95,44.00 143.00,53.98 143.00,55.70 C143.00,56.26 144.10,57.89 145.43,59.33 C150.01,64.27 152.69,68.50 155.44,75.13 C157.93,81.11 158.16,82.69 157.82,91.13 C157.53,98.14 156.87,101.69 155.22,105.20 C154.00,107.78 153.00,110.48 153.00,111.20 C153.00,112.47 150.05,115.81 144.96,120.28 C141.03,123.73 141.70,126.58 147.87,132.65 C150.86,135.59 154.13,138.00 155.13,138.00 C156.14,138.00 159.38,135.57 162.35,132.61 ZM 255.31 121.21 C255.96,120.70 257.62,120.00 259.00,119.67 C260.38,119.34 263.19,117.67 265.25,115.96 C268.57,113.21 268.86,112.61 267.84,110.68 C264.87,105.07 260.65,103.70 256.15,106.88 C252.55,109.42 247.85,110.31 242.21,109.51 C238.38,108.96 236.99,108.17 234.75,105.26 C233.24,103.29 232.00,100.63 232.00,99.34 L 232.00 97.00 L 249.78 97.00 C271.85,97.00 272.02,96.92 271.88,87.26 C271.82,83.60 271.43,79.91 271.00,79.06 C270.58,78.20 269.71,76.38 269.06,75.00 C267.31,71.26 262.65,66.44 257.81,63.35 C253.81,60.80 252.76,60.60 243.25,60.64 C235.16,60.68 232.62,61.03 231.17,62.34 C230.17,63.25 228.94,64.00 228.44,64.00 C226.81,64.00 219.00,73.12 219.00,75.03 C219.00,76.05 218.55,77.16 218.00,77.50 C217.45,77.84 217.00,78.94 217.00,79.95 C217.00,80.96 216.32,82.05 215.50,82.36 C214.32,82.81 214.00,84.86 214.00,91.97 C214.00,99.33 214.28,101.00 215.50,101.00 C216.32,101.00 217.00,101.87 217.00,102.94 C217.00,104.01 217.42,105.14 217.92,105.45 C218.43,105.77 219.16,107.48 219.55,109.26 C220.23,112.44 226.35,119.00 228.63,119.00 C229.25,119.00 230.29,119.65 230.95,120.44 C231.61,121.24 233.81,122.09 235.83,122.34 C241.31,123.01 253.95,122.28 255.31,121.21 ZM 413.31 121.19 C413.96,120.66 415.85,119.93 417.50,119.56 C419.15,119.19 422.05,117.57 423.94,115.96 L 427.38 113.03 L 423.44 109.03 C418.94,104.46 416.63,104.06 413.23,107.25 C411.23,109.13 409.72,109.50 403.94,109.50 C397.60,109.50 396.79,109.25 394.04,106.50 C392.39,104.85 390.76,102.07 390.41,100.31 L 389.78 97.13 L 408.64 96.65 C419.01,96.39 428.29,96.10 429.25,96.02 C430.70,95.90 431.00,94.88 431.00,90.14 C431.00,86.98 430.60,83.97 430.12,83.45 C429.64,82.93 428.68,80.70 428.00,78.50 C426.14,72.54 421.12,66.45 415.55,63.38 C411.11,60.94 409.62,60.66 401.24,60.73 C392.73,60.80 391.51,61.06 387.69,63.61 C381.83,67.52 378.72,70.97 375.94,76.63 C373.90,80.77 373.54,83.00 373.52,91.50 C373.50,100.07 373.84,102.20 375.91,106.40 C380.33,115.37 385.84,120.03 394.50,122.13 C398.43,123.09 411.78,122.42 413.31,121.19 ZM 294.00 100.81 L 294.50 80.13 L 297.44 77.06 C302.92,71.35 311.33,73.40 314.78,81.30 C315.60,83.18 316.00,90.33 316.00,103.09 L 316.00 122.08 L 323.75 121.79 L 331.50 121.50 L 331.77 99.42 C332.08,74.07 331.76,72.61 324.36,65.42 C320.41,61.58 319.21,60.98 315.16,60.83 C306.34,60.51 301.49,61.19 298.19,63.21 L 294.88 65.24 L 294.32 63.12 C293.81,61.18 293.08,61.00 285.49,61.00 C278.87,61.00 277.09,61.32 276.61,62.58 C276.27,63.45 276.00,76.70 276.00,92.03 C276.00,124.25 275.25,122.13 286.50,121.74 L 293.50 121.50 L 294.00 100.81 ZM 367.42 121.39 C369.35,120.65 369.64,112.04 367.80,110.20 C367.14,109.54 364.91,109.00 362.84,109.00 C360.14,109.00 358.78,108.45 358.04,107.07 C357.47,106.00 357.00,99.03 357.00,91.57 L 357.00 78.00 L 360.78 78.00 C366.60,78.00 369.00,75.78 369.00,70.38 C369.00,63.87 367.70,62.00 363.16,62.00 C358.51,62.00 357.00,60.58 357.00,56.23 C357.00,54.37 356.36,52.21 355.57,51.43 C353.81,49.66 343.91,49.49 342.20,51.20 C341.32,52.08 341.00,59.91 341.00,80.21 C341.00,106.32 341.13,108.29 343.09,112.46 C346.51,119.74 349.96,121.77 359.17,121.90 C362.84,121.96 366.55,121.73 367.42,121.39 ZM 462.50 115.50 L 462.50 109.50 L 457.54 109.00 C453.30,108.57 452.48,108.14 451.89,106.00 C451.51,104.62 451.15,92.47 451.09,79.00 C451.02,65.53 450.70,53.49 450.37,52.25 C449.83,50.25 449.13,50.00 444.01,50.00 C440.22,50.00 437.84,50.49 437.05,51.43 C436.18,52.49 435.95,60.57 436.18,82.18 C436.53,113.99 436.56,114.20 442.35,119.25 C445.32,121.83 445.99,121.98 454.00,121.75 L 462.50 121.50 L 462.50 115.50 ZM 69.64 80.29 C65.52,79.23 70.64,66.49 76.85,62.32 C78.87,60.96 81.53,60.53 88.08,60.52 C96.18,60.50 96.84,60.66 100.12,63.50 C104.67,67.44 106.93,71.91 106.23,75.57 C105.23,80.79 104.45,81.01 87.32,80.88 C78.62,80.82 70.66,80.55 69.64,80.29 ZM 232.00 83.02 C232.00,81.14 233.07,78.83 234.89,76.80 C237.49,73.89 238.33,73.57 243.36,73.57 C250.43,73.57 254.24,76.09 255.09,81.35 C255.42,83.35 255.45,85.21 255.17,85.49 C254.90,85.77 249.57,86.00 243.33,86.00 L 232.00 86.00 L 232.00 83.02 ZM 390.48 84.98 C389.36,83.16 391.04,78.32 393.63,75.88 C397.04,72.68 407.08,72.46 409.54,75.53 C411.87,78.46 414.15,83.95 413.47,85.04 C412.67,86.35 391.29,86.28 390.48,84.98 Z" fill="rgb(254,254,254)"/>
</g>
</svg>